<svg width="49" height="60" viewBox="0 0 49 60" fill="none" xmlns="http://www.w3.org/2000/svg">
<path d="M24.4517 44.4814C13.406 44.4814 4.45166 35.5271 4.45166 24.4814C4.45166 13.4358 13.406 4.48145 24.4517 4.48145C35.4974 4.48145 44.4517 13.4358 44.4517 24.4814C44.4395 35.5221 35.4923 44.4693 24.4517 44.4814ZM24.4517 8.48145C15.6151 8.48145 8.45166 15.6449 8.45166 24.4814C8.45166 33.318 15.6151 40.4814 24.4517 40.4814C33.2882 40.4814 40.4517 33.318 40.4517 24.4814C40.4417 15.649 33.2841 8.49136 24.4517 8.48145ZM24.3517 31.4814L14.4517 21.5814L17.2797 18.7534L24.3517 25.8234L31.4237 18.7534L34.2517 21.5814L24.3517 31.4814Z" fill="#D2AB67"/>
<path d="M10.1016 59.4814V48.8174H13.1411C14.1128 48.8174 14.8428 49.0542 15.3311 49.5278C15.8242 50.0015 16.0708 50.7119 16.0708 51.6592C16.0708 52.1572 15.9463 52.5967 15.6973 52.9775C15.4482 53.3584 15.1113 53.6538 14.6865 53.8638C15.1748 54.0103 15.5605 54.3105 15.8438 54.7646C16.1318 55.2188 16.2759 55.7656 16.2759 56.4053C16.2759 57.3623 16.0122 58.1143 15.4849 58.6611C14.9624 59.208 14.2153 59.4814 13.2437 59.4814H10.1016ZM11.4419 54.4937V58.3315H13.2729C13.7808 58.3315 14.1836 58.1655 14.4814 57.8335C14.7793 57.4966 14.9282 57.0254 14.9282 56.4199C14.9282 55.1357 14.3862 54.4937 13.3022 54.4937H11.4419ZM11.4419 53.3657H13.1631C13.627 53.3657 14.0005 53.2095 14.2837 52.897C14.5718 52.5845 14.7158 52.1694 14.7158 51.6519C14.7158 51.0659 14.5864 50.6411 14.3276 50.3774C14.0688 50.1089 13.6733 49.9746 13.1411 49.9746H11.4419V53.3657ZM23.6733 59.4814H22.3843V56.0977H19.5278V59.4814H18.2241V51.5566H19.5278V54.9917H22.3843V51.5566H23.6733V59.4814ZM30.0234 51.5566H31.3125V59.4814H30.0234V53.7026L27.1523 59.4814H25.856V51.5566H27.1523V57.3428L30.0234 51.5566ZM38.2485 53.7173C38.2485 54.0737 38.1582 54.4009 37.9775 54.6987C37.7969 54.9966 37.5405 55.2334 37.2085 55.4092C37.9849 55.7266 38.373 56.3418 38.373 57.2549C38.373 57.9922 38.1313 58.5708 37.6479 58.9907C37.1694 59.4106 36.5371 59.6206 35.751 59.6206C34.9746 59.6206 34.335 59.3984 33.832 58.9541C33.334 58.5049 33.085 57.8994 33.085 57.1377H34.3667C34.3667 57.5283 34.4985 57.8604 34.7622 58.1338C35.0259 58.4072 35.3555 58.5439 35.751 58.5439C36.1514 58.5439 36.4712 58.4243 36.7104 58.1851C36.9546 57.9458 37.0767 57.6357 37.0767 57.2549C37.0767 56.8105 36.9766 56.4932 36.7764 56.3027C36.5811 56.1074 36.271 56.0098 35.8462 56.0098H34.6597V54.8672H35.9341C36.6177 54.8428 36.9595 54.4619 36.9595 53.7246C36.9595 53.3535 36.8521 53.0605 36.6372 52.8457C36.4272 52.626 36.1343 52.5161 35.7583 52.5161C35.3921 52.5161 35.0845 52.6382 34.8354 52.8823C34.5913 53.1265 34.4692 53.4219 34.4692 53.7686H33.1875C33.1875 53.0801 33.4316 52.5161 33.9199 52.0767C34.4082 51.6372 35.021 51.4175 35.7583 51.4175C36.5444 51.4175 37.1548 51.6177 37.5894 52.0181C38.0288 52.4185 38.2485 52.9849 38.2485 53.7173Z" fill="#AB8027"/>
</svg>
