<svg width="111" height="110" viewBox="0 0 111 110" fill="none" xmlns="http://www.w3.org/2000/svg">
<g clip-path="url(#clip0_145_14545)">
<path d="M77.2576 110H11.2574C5.18221 110 0.257324 105.075 0.257324 99.0003V33.0001H11.2574V99.0003H77.2576V110ZM99.2576 88.0003H33.2574C27.1823 88.0003 22.2574 83.0754 22.2574 77.0002V11C22.2574 4.92488 27.1823 0 33.2574 0H99.2576C105.333 0 110.258 4.92488 110.258 11V77.0002C110.258 83.0754 105.333 88.0003 99.2576 88.0003ZM33.2574 11V77.0002H99.2576V11H33.2574Z" fill="#E84A4A"/>
<path d="M77.9246 63.4457L85.7028 55.6675L74.0355 44.0002L85.7028 32.3329L77.9246 24.5547L66.2573 36.222L54.59 24.5547L46.8118 32.3329L58.4791 44.0002L46.8118 55.6675L54.59 63.4457L66.2573 51.7784L77.9246 63.4457Z" fill="#E84A4A"/>
</g>
<defs>
<clipPath id="clip0_145_14545">
<rect width="110" height="110" fill="white" transform="translate(0.256836)"/>
</clipPath>
</defs>
</svg>
