<svg width="23" height="23" viewBox="0 0 23 23" fill="none" xmlns="http://www.w3.org/2000/svg">
<g clip-path="url(#clip0_328_66)">
<path d="M17.4234 22.7548H2.22718C1.46421 22.7548 0.845703 22.1363 0.845703 21.3733V10.5149C0.845703 10.1567 0.984896 9.81242 1.2339 9.55482L8.83201 1.68042C9.09235 1.4107 9.45112 1.25837 9.82598 1.25837C10.2008 1.25837 10.5596 1.4107 10.82 1.68042L14.6881 5.68669L12.7126 7.62352L9.82529 4.62986L3.60865 11.0675V19.985H18.8049V21.3664C18.8067 21.734 18.662 22.0872 18.4027 22.3477C18.1434 22.6083 17.791 22.7548 17.4234 22.7548Z" fill="#BCBCBC"/>
<path d="M12.8408 14.466H22.8459V11.703H12.8408V14.466Z" fill="#BCBCBC"/>
<path d="M11.3738 13.1027L16.5757 18.3045L18.5294 16.3508L15.2812 13.1027L18.5294 9.85448L16.5826 7.90762L11.3738 13.1027Z" fill="#BCBCBC"/>
</g>
<defs>
<clipPath id="clip0_328_66">
<rect width="22" height="22" fill="white" transform="translate(0.845703 0.754791)"/>
</clipPath>
</defs>
</svg>
