<svg width="18" height="18" viewBox="0 0 18 18" fill="none" xmlns="http://www.w3.org/2000/svg">
<path d="M8.99984 17.3333C4.39746 17.3333 0.666504 13.6023 0.666504 8.99996C0.666504 4.39759 4.39746 0.666626 8.99984 0.666626C13.6022 0.666626 17.3332 4.39759 17.3332 8.99996C17.3281 13.6002 13.6001 17.3282 8.99984 17.3333ZM2.33317 9.14329C2.3726 12.811 5.36743 15.7579 9.03529 15.7383C12.7031 15.7185 15.6661 12.7395 15.6661 9.07162C15.6661 5.40371 12.7031 2.42477 9.03529 2.40496C5.36743 2.38534 2.3726 5.33226 2.33317 8.99996V9.14329ZM10.6665 13.1666H8.1665V9.83329H7.33317V8.16663H9.83317V11.5H10.6665V13.1666ZM9.83317 6.49996H8.1665V4.83329H9.83317V6.49996Z" fill="#AB8027"/>
</svg>
