<svg width="111" height="110" viewBox="0 0 111 110" fill="none" xmlns="http://www.w3.org/2000/svg">
<path d="M77.8037 110H11.8037C5.72858 110 0.803711 105.075 0.803711 98.9998V32.9998H11.8037V98.9998H77.8037V110ZM99.8037 87.9998H33.8037C27.7286 87.9998 22.8037 83.0749 22.8037 76.9998V10.9998C22.8037 4.92462 27.7286 -0.000244141 33.8037 -0.000244141H99.8037C105.879 -0.000244141 110.804 4.92462 110.804 10.9998V76.9998C110.804 83.0749 105.879 87.9998 99.8037 87.9998ZM33.8037 10.9998V76.9998H99.8037V10.9998H33.8037ZM61.3037 63.5853L40.9152 43.1913L48.6922 35.4143L61.3037 48.0313L84.9152 24.4198L92.6922 32.1968L61.3037 63.5798V63.5853Z" fill="#24AF64"/>
</svg>
