<svg width="17" height="14" viewBox="0 0 17 14" fill="none" xmlns="http://www.w3.org/2000/svg">
<path d="M11.1335 0.304754L15.6399 4.88272C16.1908 5.44522 16.5 6.20647 16.5 7C16.5 7.79353 16.1908 8.55478 15.6399 9.11728L11.1345 13.6952C11.0438 13.7906 10.9354 13.8666 10.8156 13.919C10.6957 13.9713 10.5668 13.9988 10.4364 14C10.3059 14.0011 10.1765 13.9759 10.0558 13.9257C9.93507 13.8755 9.82538 13.8013 9.73314 13.7076C9.6409 13.6139 9.56795 13.5024 9.51855 13.3798C9.46915 13.2571 9.4443 13.1256 9.44543 12.9931C9.44656 12.8605 9.47366 12.7295 9.52515 12.6078C9.57664 12.486 9.65148 12.3758 9.74532 12.2837L13.9609 7.99825L1.48243 7.99825C1.22187 7.99825 0.971989 7.89308 0.787747 7.70587C0.603506 7.51866 0.5 7.26475 0.5 7C0.5 6.73525 0.603506 6.48134 0.787747 6.29413C0.971989 6.10692 1.22187 6.00175 1.48243 6.00175L13.9619 6.00175L9.74433 1.71628C9.6505 1.62419 9.57566 1.51404 9.52417 1.39225C9.47268 1.27046 9.44558 1.13947 9.44445 1.00692C9.44331 0.874376 9.46817 0.742927 9.51757 0.620246C9.56697 0.497565 9.63991 0.386108 9.73216 0.29238C9.8244 0.198652 9.93409 0.124529 10.0548 0.0743362C10.1756 0.0241435 10.3049 -0.00111368 10.4354 3.81252e-05C10.5658 0.00118993 10.6947 0.0287279 10.8146 0.081045C10.9345 0.133362 11.0429 0.209411 11.1335 0.304754Z" fill="#7E8389"/>
</svg>
