<svg width="130" height="55" viewBox="0 0 130 55" fill="none" xmlns="http://www.w3.org/2000/svg">
<path d="M60.9126 9.64054L62.4862 15.6685L64.0556 9.64054H66.2553V17.9739H64.5632V15.7193L64.7197 12.2463L63.053 17.9739H61.9109L60.2442 12.2463L60.3965 15.7193V17.9739H58.7129V9.64054H60.9126Z" fill="white"/>
<path d="M71.9998 14.3699H69.3814V16.578H72.4821V17.974H67.6978V9.64058H72.4694V11.0408H69.3814V13.012H71.9998V14.3699Z" fill="white"/>
<path d="M75.7858 9.64058L77.3595 15.6686L78.9289 9.64058H81.1285V17.974H79.4407V15.7193L79.593 12.2463L77.9263 17.974H76.7842L75.1175 12.2463L75.2698 15.7193V17.974H73.5862V9.64058H75.7858Z" fill="white"/>
<path d="M84.2546 16.578H87.2073V17.974H82.571V9.64058H84.2546V16.578Z" fill="white"/>
<path d="M92.5501 14.3699H89.9274V16.578H93.0324V17.974H88.248V9.64058H93.0197V11.0408H89.9274V13.012H92.5501V14.3699Z" fill="white"/>
<path d="M96.4842 14.7591L95.8201 15.5924V17.974H94.1365V9.64058H95.8201V13.2743L96.3531 12.3775L97.9056 9.64058H99.9656L97.5756 13.3039L100.004 17.974H98.0071L96.4842 14.7591Z" fill="white"/>
<path d="M105.19 14.3699H102.567V16.578H105.668V17.974H100.884V9.64058H105.655V11.0408H102.567V13.012H105.19V14.3699Z" fill="white"/>
<path d="M112.309 11.0408H110.249V17.974H108.561V11.0408H106.535V9.64058H112.309V11.0408Z" fill="white"/>
<path d="M118.959 11.0408H116.894V17.974H115.206V11.0408H113.18V9.64058H118.959V11.0408Z" fill="white"/>
<path d="M121.713 9.64058H120.029V17.974H121.713V9.64058Z" fill="white"/>
<path d="M125.533 14.7591L124.868 15.5924V17.974H123.185V9.64058H124.868V13.2743L125.397 12.3775L126.95 9.64058H129.01L126.624 13.3039L129.052 17.974H127.051L125.533 14.7591Z" fill="white"/>
<path d="M61.0605 28.9641L60.3964 29.7974V32.179H58.717V23.8456H60.3964V27.4793L60.9294 26.5825L62.4819 23.8456H64.542L62.1562 27.5089L64.5843 32.179H62.5834L61.0605 28.9641Z" fill="white"/>
<path d="M67.1775 23.8456H65.4939V32.179H67.1775V23.8456Z" fill="white"/>
<path d="M70.3415 27.733H71.2933C71.437 27.7422 71.5809 27.7167 71.7127 27.6585C71.8445 27.6003 71.9604 27.5113 72.0505 27.3989C72.2311 27.1358 72.3203 26.8207 72.3043 26.5021C72.3043 25.656 71.9786 25.233 71.3229 25.233H70.3415V27.733ZM71.1875 29.1332H70.3415V32.1789H68.6494V23.8455H71.3313C72.0436 23.7992 72.7455 24.0347 73.2857 24.5012C73.5246 24.7458 73.7094 25.0379 73.8282 25.3586C73.947 25.6792 73.9971 26.0212 73.9752 26.3625C73.9752 27.4708 73.5733 28.2463 72.7696 28.6891L74.229 32.0986V32.1789H72.41L71.1875 29.1332Z" fill="white"/>
<path d="M76.9619 23.8456H75.2783V32.179H76.9619V23.8456Z" fill="white"/>
<path d="M81.8772 29.9918C81.8869 29.8525 81.8687 29.7127 81.8237 29.5804C81.7786 29.4482 81.7077 29.3264 81.6149 29.222C81.3338 28.9865 81.0129 28.8031 80.6674 28.6805C79.9845 28.4632 79.3656 28.0811 78.8653 27.568C78.5009 27.152 78.3048 26.615 78.3154 26.062C78.3033 25.742 78.364 25.4234 78.493 25.1303C78.622 24.8372 78.8158 24.5772 79.0599 24.37C79.5205 24.0179 80.0704 23.8016 80.6475 23.7455C81.2245 23.6894 81.8058 23.7958 82.3256 24.0527C82.7179 24.259 83.0403 24.577 83.252 24.9664C83.4715 25.3788 83.5821 25.8403 83.5735 26.3074H81.8814C81.9019 25.9901 81.8139 25.6754 81.6318 25.4148C81.5437 25.3119 81.4329 25.2308 81.3081 25.1779C81.1833 25.1251 81.0479 25.1019 80.9127 25.1102C80.7865 25.1034 80.6602 25.1233 80.5421 25.1684C80.4241 25.2136 80.3168 25.2832 80.2274 25.3725C80.0565 25.5636 79.9683 25.8145 79.9821 26.0705C79.9824 26.1875 80.007 26.3032 80.0543 26.4102C80.1017 26.5173 80.1707 26.6133 80.257 26.6923C80.5437 26.9415 80.8734 27.1365 81.2299 27.2676C81.9009 27.4745 82.509 27.8469 82.9982 28.3505C83.3796 28.8069 83.5772 29.3891 83.5523 29.9834C83.5707 30.2994 83.5178 30.6154 83.3978 30.9083C83.2777 31.2011 83.0934 31.4633 82.8586 31.6754C82.33 32.1084 81.6583 32.3273 80.9761 32.2888C80.4664 32.2951 79.9623 32.1821 79.5041 31.9589C79.0747 31.7472 78.7151 31.4169 78.4677 31.0071C78.2089 30.5651 78.0785 30.0597 78.0912 29.5477H79.7832C79.7505 29.9199 79.8509 30.2917 80.0667 30.5968C80.1861 30.7143 80.3297 30.8044 80.4875 30.8606C80.6453 30.9169 80.8135 30.938 80.9804 30.9225C81.5684 30.9225 81.8645 30.6094 81.8645 29.9876" fill="white"/>
<path d="M90.2105 25.2458H88.1505V32.179H86.4584V25.2458H84.4321V23.8456H90.2105V25.2458Z" fill="white"/>
<path d="M95.5491 28.5749H92.9307V30.7831H96.0314V32.179H91.2471V23.8456H96.0187V25.2458H92.9307V27.217H95.5491V28.5749Z" fill="white"/>
<path d="M98.8273 27.733H99.7833C99.9265 27.7423 100.07 27.7167 100.201 27.6585C100.332 27.6003 100.447 27.5112 100.536 27.3988C100.717 27.1358 100.806 26.8207 100.79 26.5021C100.79 25.656 100.464 25.233 99.8087 25.233H98.8273V27.733ZM99.6734 29.1332H98.8273V32.1789H97.1353V23.8455H99.8172C100.531 23.8003 101.233 24.0356 101.776 24.5012C102.014 24.7463 102.198 25.0385 102.317 25.359C102.436 25.6795 102.486 26.0213 102.465 26.3625C102.465 27.4708 102.042 28.2449 101.255 28.689L102.715 32.0985V32.1789H100.909L99.6734 29.1332Z" fill="white"/>
<path d="M61.0605 43.1605L60.3964 43.9981V46.3754H58.717V38.042H60.3964V41.68L60.9294 40.7789L62.4819 38.042H64.542L62.1562 41.7053L64.5843 46.3754H62.5834L61.0605 43.1605Z" fill="white"/>
<path d="M69.1615 41.5656C69.1998 40.9839 69.0907 40.4019 68.8442 39.8736C68.7386 39.7065 68.5928 39.5686 68.4201 39.4724C68.2475 39.3761 68.0535 39.3246 67.8559 39.3225C67.6583 39.3204 67.4632 39.3678 67.2886 39.4603C67.114 39.5529 66.9653 39.6877 66.8561 39.8524C66.6098 40.3525 66.4962 40.9075 66.5261 41.4641V42.9489C66.4868 43.5057 66.5994 44.0628 66.8518 44.5606C66.9578 44.7291 67.1073 44.866 67.2844 44.9568C67.4616 45.0476 67.6599 45.089 67.8586 45.0767C68.0522 45.0885 68.2454 45.0476 68.4175 44.9582C68.5896 44.8688 68.7342 44.7343 68.8358 44.5691C69.0866 44.0858 69.1993 43.5428 69.1615 42.9997V41.5656ZM70.8536 42.9616C70.9112 43.8963 70.6287 44.8204 70.0583 45.5631C69.7862 45.8749 69.4468 46.1207 69.0657 46.2819C68.6846 46.4432 68.2718 46.5156 67.8586 46.4938C67.4461 46.5141 67.0343 46.4423 66.6531 46.2835C66.2718 46.1247 65.9308 45.883 65.6547 45.5758C65.0817 44.8434 64.7932 43.9283 64.8425 42.9997V41.5741C64.7842 40.6145 65.0657 39.6649 65.6378 38.8922C65.9062 38.5716 66.2453 38.3176 66.6284 38.1503C67.0116 37.9829 67.4283 37.9067 67.8459 37.9277C68.2597 37.9092 68.6723 37.9849 69.0526 38.149C69.4329 38.3132 69.771 38.5615 70.0414 38.8753C70.6169 39.6389 70.9046 40.5811 70.8536 41.536V42.9616Z" fill="white"/>
<path d="M74.3181 38.042L75.8917 44.07L77.4611 38.042H79.6566V46.3797H77.9687V44.1207L78.1252 40.6478L76.4586 46.3797H75.3164L73.6497 40.6478L73.802 44.1207V46.3797H72.1184V38.042H74.3181Z" fill="white"/>
<path d="M82.8203 38.042H81.1367V46.3754H82.8203V38.042Z" fill="white"/>
<path d="M89.6692 39.4464H87.6091V46.3797H85.9213V39.4464H83.895V38.042H89.6692V39.4464Z" fill="white"/>
<path d="M95.0119 42.7713H92.3892V44.9795H95.4941V46.3797H90.7056V38.042H95.4814V39.4464H92.3892V41.4134H95.0119V42.7713Z" fill="white"/>
<path d="M102.136 39.4464H100.075V46.3797H98.3876V39.4464H96.3613V38.042H102.136V39.4464Z" fill="white"/>
<path d="M104.889 38.042H103.206V46.3754H104.889V38.042Z" fill="white"/>
<path d="M37.989 8.20229H44.7276C45.3836 8.20341 46.0124 8.46447 46.4762 8.92832C46.9401 9.39216 47.2012 10.021 47.2023 10.6769V19.8099L53.6575 26.2651C54.1212 26.7291 54.3816 27.3582 54.3816 28.0142C54.3816 28.6702 54.1212 29.2994 53.6575 29.7634L47.2023 36.2186V45.3516C47.2 46.0072 46.9386 46.6353 46.475 47.0989C46.0114 47.5625 45.3833 47.824 44.7276 47.8262H35.5947L29.1395 54.2814C28.6745 54.7418 28.0467 55 27.3924 55C26.7382 55 26.1103 54.7418 25.6454 54.2814L19.1902 47.8262H10.053C9.39736 47.824 8.76923 47.5625 8.30562 47.0989C7.84202 46.6353 7.58059 46.0072 7.57836 45.3516V36.2186L1.12736 29.7592C0.898113 29.5307 0.71651 29.2591 0.593065 28.9599C0.469619 28.6607 0.406783 28.34 0.408227 28.0164C0.407457 27.3618 0.666037 26.7336 1.12736 26.2693L7.58259 19.8141V10.6769C7.58482 10.0213 7.84625 9.39316 8.30986 8.92955C8.77346 8.46595 9.4016 8.20452 10.0572 8.20229H19.1944L27.3544 0L35.5736 8.18535L37.989 8.20229Z" fill="white"/>
<path d="M10.0488 9.14564H19.5708L27.3924 22.5256L33.8984 8.72263C33.9466 8.59855 33.971 8.46654 33.9703 8.33346C33.9702 8.07519 33.8737 7.82627 33.6996 7.63547L31.2546 5.19045L27.3924 22.5341L25.1293 4.12868C25.1293 4.09483 25.1293 4.061 25.1293 4.02716C25.1303 3.75259 25.2398 3.48953 25.4339 3.29532L27.3966 1.33675L29.3637 3.30802C29.5528 3.4997 29.6591 3.75792 29.6598 4.02716C29.662 4.05955 29.662 4.09205 29.6598 4.12444L27.4009 22.5341L23.5345 5.19045L21.1276 7.60162C21.0301 7.69702 20.9526 7.81088 20.8996 7.93652C20.8466 8.06216 20.8191 8.19709 20.8188 8.33346C20.8196 8.479 20.8499 8.62287 20.9076 8.75647V8.79453C20.9076 8.79453 20.9076 8.79455 20.9076 8.8157L27.3713 22.5256L35.1886 9.14564H44.7107C45.1176 9.14676 45.5075 9.30889 45.7953 9.59662C46.083 9.88435 46.2451 10.2743 46.2462 10.6812V20.2033L52.9764 26.9377C53.1193 27.08 53.2327 27.2491 53.31 27.4353C53.3874 27.6215 53.4272 27.8211 53.4272 28.0227C53.4272 28.2244 53.3874 28.424 53.31 28.6102C53.2327 28.7964 53.1193 28.9655 52.9764 29.1078L46.2462 35.838V45.3643C46.2451 45.7708 46.0829 46.1603 45.795 46.4474C45.5072 46.7344 45.1172 46.8956 44.7107 46.8956H35.2098L28.4754 53.63C28.1869 53.9165 27.7969 54.0773 27.3903 54.0773C26.9838 54.0773 26.5937 53.9165 26.3053 53.63L19.5708 46.8956H10.0488C9.84732 46.8956 9.64785 46.8559 9.46178 46.7786C9.27572 46.7014 9.10671 46.5882 8.96446 46.4456C8.82221 46.303 8.7095 46.1337 8.63279 45.9474C8.55608 45.7611 8.51688 45.5615 8.51743 45.3601V35.838L1.78302 29.1078C1.64016 28.9655 1.52679 28.7964 1.44944 28.6102C1.37209 28.424 1.33228 28.2244 1.33228 28.0227C1.33228 27.8211 1.37209 27.6215 1.44944 27.4353C1.52679 27.2491 1.64016 27.08 1.78302 26.9377L8.51743 20.2033V10.6812C8.51743 10.2747 8.67864 9.88473 8.9657 9.59688C9.25276 9.30903 9.64225 9.14676 10.0488 9.14564Z" fill="#D1AB66"/>
<path d="M8.92784 35.4277L16.356 28.0206H1.84232C1.84124 27.8842 1.86724 27.7489 1.91879 27.6225C1.97035 27.4962 2.04644 27.3813 2.14267 27.2846L8.87708 20.5544L9.07168 20.2033H19.5709L9.32547 9.95364C9.51968 9.75954 9.78272 9.65006 10.0573 9.64905H19.5794L19.7232 9.45025L24.9982 20.2033H26.0346L27.3925 22.5257L33.8985 8.72265C33.9151 8.67835 33.9292 8.63315 33.9408 8.58728L31.1235 5.77424L27.3925 22.5257L27.1048 20.2033H27.3925V2.039L29.6303 4.28098L27.3925 22.5257L26.8722 20.2033H26.2969L27.3925 22.5257L35.2098 20.2033L45.4595 9.9494C45.6528 10.1441 45.7622 10.4068 45.7641 10.6812V20.2033L45.8529 20.6263L38.4459 28.0333H52.9384C52.9405 28.1699 52.9149 28.3055 52.8633 28.432C52.8117 28.5585 52.7351 28.6732 52.6381 28.7694L45.9037 35.4911L45.6245 35.838H35.2098L45.4553 46.1088C45.3594 46.2053 45.2454 46.2819 45.1198 46.3342C44.9942 46.3864 44.8595 46.4133 44.7235 46.4134H35.2014L35.0576 46.7645L27.3925 39.0994V53.592C27.2558 53.5923 27.1204 53.5655 26.994 53.5132C26.8677 53.461 26.753 53.3842 26.6564 53.2874L19.922 46.5318L19.5709 46.2569V35.838L9.32547 46.1088C9.2281 46.0127 9.15097 45.898 9.09866 45.7716C9.04634 45.6452 9.01989 45.5096 9.02089 45.3728V35.8295L8.92784 35.4277Z" fill="#AB8026"/>
<path d="M28.2472 9.09058H26.6947C15.8591 9.09058 7.0752 17.8745 7.0752 28.7101C7.0752 39.5456 15.8591 48.3296 26.6947 48.3296H28.2471C39.0827 48.3296 47.8666 39.5456 47.8666 28.7101C47.8666 17.8745 39.0827 9.09058 28.2472 9.09058Z" fill="url(#paint0_linear_308_1408)"/>
<path d="M27.3927 21.3031L29.3175 19.2303L32.4858 13.2785C35.9803 14.486 38.9322 16.8956 40.815 20.0776C42.6977 23.2596 43.3888 27.0069 42.7651 30.6512C42.1413 34.2954 40.2432 37.5995 37.4094 39.9742C34.5755 42.3489 30.9903 43.6396 27.2931 43.6161C23.5959 43.5927 20.0273 42.2566 17.2238 39.8461C14.4204 37.4357 12.5643 34.1077 11.9869 30.4559C11.4094 26.804 12.148 23.0657 14.071 19.9079C15.994 16.7501 18.9762 14.3781 22.4857 13.215L25.3072 18.6127L27.3927 21.3031Z" fill="#FAFAFA"/>
<path d="M30.2723 29.9252L28.8103 28.4632L28.4759 28.7976L29.9957 30.3173C29.9379 30.3842 29.8771 30.4511 29.8133 30.5119C29.7522 30.5765 29.6872 30.6374 29.6188 30.6942L28.099 29.1745L27.7677 29.5058L29.2297 30.9678C29.0739 31.068 28.9102 31.1554 28.7403 31.2292L27.3878 29.8736L26.0443 31.217C25.8745 31.1443 25.7108 31.0579 25.5549 30.9587L27.0169 29.4967L26.6826 29.1623L25.1628 30.6821C25.099 30.6243 25.0321 30.5635 24.9683 30.4997C24.9045 30.4359 24.8467 30.3721 24.789 30.3082L26.3087 28.7885L25.9774 28.4541L24.5154 29.9161C24.4164 29.7586 24.329 29.594 24.254 29.4237L25.6005 28.0772L24.254 26.7307C24.3266 26.5602 24.4141 26.3965 24.5154 26.2413L25.9744 27.7033L26.3087 27.369L24.789 25.8492C24.8467 25.7824 24.9045 25.7155 24.9683 25.6547C25.0321 25.5939 25.099 25.5301 25.1659 25.4723L26.6856 26.9921L27.0169 26.6577L25.558 25.1988C25.7142 25.0974 25.8789 25.01 26.0504 24.9374L27.3938 26.2839L28.7403 24.9374C28.9115 25.0106 29.0762 25.0981 29.2328 25.1988L27.7707 26.6577L28.1021 26.9951L29.6218 25.4754C29.6887 25.5331 29.7555 25.5939 29.8163 25.6577C29.8771 25.7216 29.9379 25.7854 29.9987 25.8523L28.479 27.372L28.8133 27.7064L30.2753 26.2444C30.3749 26.4005 30.4623 26.5641 30.5367 26.7337L29.1872 28.0833L30.5337 29.4268C30.4603 29.5963 30.3739 29.7599 30.2753 29.9161L30.2723 29.9252ZM30.2328 25.2383C29.6707 24.6765 28.9547 24.294 28.1753 24.1391C27.3959 23.9842 26.588 24.0638 25.8539 24.368C25.1198 24.6722 24.4923 25.1872 24.0508 25.848C23.6094 26.5088 23.3738 27.2856 23.3738 28.0802C23.3738 28.8749 23.6094 29.6517 24.0508 30.3125C24.4923 30.9732 25.1198 31.4883 25.8539 31.7925C26.588 32.0967 27.3959 32.1763 28.1753 32.0214C28.9547 31.8665 29.6707 31.484 30.2328 30.9222C30.6061 30.5491 30.9022 30.106 31.1043 29.6184C31.3063 29.1307 31.4103 28.6081 31.4103 28.0802C31.4103 27.5524 31.3063 27.0297 31.1043 26.5421C30.9022 26.0545 30.6061 25.6114 30.2328 25.2383Z" fill="url(#paint1_linear_308_1408)"/>
<path d="M27.3616 29.1243L27.6959 28.7899L27.3616 28.4556L27.0303 28.7899L27.3616 29.1243Z" fill="url(#paint2_linear_308_1408)"/>
<path d="M26.6537 28.4133L26.985 28.082L26.6537 27.7476L26.3193 28.0789L26.6537 28.4133Z" fill="url(#paint3_linear_308_1408)"/>
<path d="M28.0729 28.4133L28.4072 28.082L28.0729 27.7476L27.7385 28.0789L28.0729 28.4133Z" fill="url(#paint4_linear_308_1408)"/>
<path d="M27.3616 27.7049L27.6959 27.3705L27.3616 27.0362L27.0303 27.3705L27.3616 27.7049Z" fill="url(#paint5_linear_308_1408)"/>
<path d="M38.0399 17.3945C36.404 15.8951 34.5279 14.6811 32.4899 13.8031L29.973 18.1094C30.3029 18.2194 30.4764 18.7143 31.0644 19.0443C31.1447 20.1568 32.9299 19.2938 32.1431 19.7591C41.6355 21.6458 42.0966 37.052 32.6126 40.2881C32.3546 38.7906 33.0356 36.904 35.1084 35.7957C31.885 35.7957 30.7767 32.5131 32.7141 31.5021C33.8055 30.9352 35.3664 32.4412 34.0043 33.7229C38.2345 33.6637 39.0425 27.4073 34.1778 26.7177C35.3072 22.3691 31.407 20.5544 29.3554 21.8319C29.1679 21.9618 29.016 22.1365 28.9134 22.3402C28.8107 22.5438 28.7607 22.7699 28.7679 22.9978C28.775 23.2258 28.8391 23.4483 28.9543 23.6451C29.0695 23.8419 29.2321 24.0068 29.4273 24.1247C29.9869 24.409 30.4796 24.8092 30.8725 25.2988C31.2654 25.7883 31.5495 26.3559 31.706 26.9638C31.8625 27.5717 31.8877 28.2059 31.78 28.8243C31.6723 29.4427 31.4341 30.0311 31.0813 30.5503C30.7461 31.0097 30.3424 31.4149 29.8841 31.7516C28.5855 32.8261 28.1625 34.0994 28.1033 35.7661C27.9836 38.3464 28.8691 40.8727 30.5737 42.8135C33.2219 42.2375 35.6661 40.959 37.6498 39.1124C39.6334 37.2657 41.0833 34.9191 41.847 32.3188C42.6108 29.7185 42.6603 26.9605 41.9904 24.3345C41.3206 21.7084 39.9559 19.3112 38.0399 17.3945Z" fill="#AB8026"/>
<path d="M25.3874 18.2152L25.2351 17.9529L25.3493 18.194H25.3874" fill="#D6B56E"/>
<path d="M24.9348 31.7516C24.4766 31.4149 24.0728 31.0097 23.7377 30.5503C23.3824 30.0312 23.1419 29.4424 23.0323 28.823C22.9228 28.2036 22.9467 27.5679 23.1025 26.9585C23.2582 26.3491 23.5423 25.7799 23.9356 25.289C24.3289 24.7982 24.8224 24.3969 25.3832 24.112C25.5831 23.9931 25.7494 23.8251 25.8662 23.6239C25.983 23.4228 26.0466 23.1951 26.0508 22.9626C26.055 22.73 25.9998 22.5002 25.8904 22.2949C25.781 22.0897 25.621 21.9157 25.4255 21.7896C23.3654 20.5586 19.5033 22.3776 20.637 26.7008C15.7765 27.3903 16.5718 33.6468 20.8146 33.7102C19.4525 32.4412 21.0135 30.9183 22.1049 31.4851C24.0423 32.4962 22.9509 35.783 19.7063 35.7788C21.7707 36.8913 22.4602 38.7737 22.2064 40.2712C12.7224 37.0351 13.1834 21.6289 22.6759 19.7422C21.8891 19.2769 23.6742 20.1398 23.7504 19.0273C24.3257 18.7058 24.5076 18.232 24.8164 18.1051L22.2783 13.7988C20.2581 14.6834 18.3996 15.8986 16.7791 17.3945C14.8616 19.3109 13.4959 21.7084 12.8255 24.3351C12.155 26.9618 12.2045 29.7206 12.9689 32.3215C13.7333 34.9224 15.1843 37.2694 17.1693 39.1157C19.1544 40.9619 21.6001 42.2393 24.2495 42.8135C25.9541 40.8727 26.8397 38.3464 26.7199 35.7661C26.6607 34.0994 26.2377 32.8261 24.939 31.7516" fill="#D1AB66"/>
<path d="M33.3361 16.9418C33.3378 17.6597 33.188 18.3699 32.8964 19.026C32.6048 19.682 32.1781 20.2691 31.644 20.7489C31.1702 20.7489 31.3606 20.8124 31.1575 20.8124C31.0169 20.8119 30.8796 20.8548 30.7641 20.9351C30.6626 20.9351 30.578 20.9985 30.4807 20.9985C30.292 20.9658 30.0978 21.0034 29.935 21.1043C29.8758 21.155 29.512 21.1043 29.3512 21.1677L29.2328 21.1889C29.0255 21.2143 28.281 22.1153 28.0822 22.1745C27.9398 22.0739 27.7637 22.0329 27.5915 22.0603H26.8681C26.7962 22.0603 26.7497 21.9376 26.5424 21.9334C26.4748 21.9334 26.3098 22.1068 26.1194 21.8742L25.358 20.9985C25.1592 20.8716 24.935 20.6178 24.7192 20.5755C24.5754 20.5459 24.66 20.5755 24.4781 20.4994C24.2662 20.4334 24.0427 20.4132 23.8224 20.4401C23.594 20.4401 23.281 20.4021 23.1287 20.6432L23.0441 20.6136C22.5515 20.138 22.1594 19.5683 21.8913 18.9382C21.6232 18.3082 21.4843 17.6307 21.4832 16.946C22.1916 16.8761 22.9068 16.9559 23.5824 17.1804C24.258 17.4049 24.8788 17.7689 25.4045 18.2489L25.4299 18.2743C25.3655 17.8984 25.3329 17.5177 25.3326 17.1364C25.3331 16.2413 25.5217 15.3562 25.8861 14.5386C26.2504 13.721 26.7824 12.989 27.4477 12.3901C28.1082 12.9916 28.6358 13.7246 28.9964 14.5419C29.357 15.3593 29.5427 16.243 29.5416 17.1364C29.5399 17.5179 29.5059 17.8985 29.4401 18.2743C29.9678 17.7882 30.592 17.4187 31.272 17.1899C31.952 16.961 32.6726 16.8779 33.3868 16.946" fill="#FAFAFA"/>
<defs>
<linearGradient id="paint0_linear_308_1408" x1="35049.4" y1="-3.28531e+06" x2="38982.9" y2="-3.28531e+06" gradientUnits="userSpaceOnUse">
<stop stop-color="#2C2276"/>
<stop offset="1" stop-color="#20164D"/>
</linearGradient>
<linearGradient id="paint1_linear_308_1408" x1="5864.41" y1="-120711" x2="6006.98" y2="-120711" gradientUnits="userSpaceOnUse">
<stop stop-color="#2C2276"/>
<stop offset="1" stop-color="#20164D"/>
</linearGradient>
<linearGradient id="paint2_linear_308_1408" x1="510.838" y1="-10017.6" x2="522.647" y2="-10017.6" gradientUnits="userSpaceOnUse">
<stop stop-color="#2C2276"/>
<stop offset="1" stop-color="#20164D"/>
</linearGradient>
<linearGradient id="paint3_linear_308_1408" x1="510.127" y1="-9972.64" x2="521.936" y2="-9972.64" gradientUnits="userSpaceOnUse">
<stop stop-color="#2C2276"/>
<stop offset="1" stop-color="#20164D"/>
</linearGradient>
<linearGradient id="paint4_linear_308_1408" x1="513.758" y1="-9972.64" x2="525.62" y2="-9972.64" gradientUnits="userSpaceOnUse">
<stop stop-color="#2C2276"/>
<stop offset="1" stop-color="#20164D"/>
</linearGradient>
<linearGradient id="paint5_linear_308_1408" x1="510.838" y1="-10019" x2="522.647" y2="-10019" gradientUnits="userSpaceOnUse">
<stop stop-color="#2C2276"/>
<stop offset="1" stop-color="#20164D"/>
</linearGradient>
</defs>
</svg>
