<svg width="18" height="15" viewBox="0 0 18 15" fill="none" xmlns="http://www.w3.org/2000/svg">
<path d="M13 5.49998C13.6904 5.49998 14.25 6.05962 14.25 6.74998C14.25 7.44033 13.6904 7.99998 13 7.99998C12.3096 7.99998 11.75 7.44033 11.75 6.74998C11.75 6.05962 12.3096 5.49998 13 5.49998Z" fill="#6F6F6F"/>
<path d="M9 5.49998C9.69036 5.49998 10.25 6.05962 10.25 6.74998C10.25 7.44033 9.69036 7.99998 9 7.99998C8.30964 7.99998 7.75 7.44033 7.75 6.74998C7.75 6.05962 8.30964 5.49998 9 5.49998Z" fill="#6F6F6F"/>
<path d="M6.25 6.74998C6.25 6.05962 5.69036 5.49998 5 5.49998C4.30964 5.49998 3.75 6.05962 3.75 6.74998C3.75 7.44033 4.30964 7.99998 5 7.99998C5.69036 7.99998 6.25 7.44033 6.25 6.74998Z" fill="#6F6F6F"/>
<path fill-rule="evenodd" clip-rule="evenodd" d="M4.89927 0.592768C7.59346 0.363008 10.3017 0.349675 12.9981 0.552895L13.1913 0.567459C15.7626 0.761257 17.75 2.90409 17.75 5.48269V14C17.75 14.2639 17.6113 14.5083 17.3849 14.6437C17.1584 14.7791 16.8774 14.7855 16.645 14.6606L12.7342 12.5589C12.5523 12.4611 12.349 12.41 12.1424 12.41H3.16603C2.03395 12.41 1.06375 11.6006 0.860823 10.4868C0.449547 8.2296 0.417057 5.91963 0.764688 3.65173L0.86713 2.9834C1.05364 1.76665 2.04903 0.835836 3.27554 0.73124L4.89927 0.592768ZM12.8853 2.04865C10.269 1.85146 7.64102 1.8644 5.02673 2.08734L3.40299 2.22581C2.86665 2.27155 2.43137 2.67859 2.34981 3.21067L2.24737 3.879C1.92497 5.98228 1.95511 8.12457 2.33653 10.218C2.40955 10.6187 2.75866 10.91 3.16603 10.91H12.1424C12.5968 10.91 13.044 11.0225 13.4442 11.2376L16.25 12.7455V5.48269C16.25 3.68878 14.8674 2.19804 13.0786 2.06322L12.8853 2.04865Z" fill="#6F6F6F"/>
</svg>
