<svg width="18" height="18" viewBox="0 0 18 18" fill="none" xmlns="http://www.w3.org/2000/svg">
<path d="M8.70732 17.3333C4.10604 17.3287 0.379261 13.5957 0.382326 8.99441C0.385395 4.39312 4.11715 0.665095 8.71843 0.666626C13.3197 0.668159 17.049 4.39867 17.049 8.99996C17.0462 13.6044 13.3118 17.3351 8.70732 17.3333ZM2.04899 9.14329C2.08842 12.811 5.08325 15.7579 8.75111 15.7383C12.419 15.7185 15.3819 12.7395 15.3819 9.07162C15.3819 5.40371 12.419 2.42477 8.75111 2.40495C5.08325 2.38534 2.08842 5.33226 2.04899 8.99996V9.14329ZM9.54899 13.1666H7.88233V11.5H9.54899V13.1666ZM9.54899 9.83329H7.88233V4.83329H9.54899V9.83329Z" fill="#E84A4A"/>
</svg>
