<svg width="49" height="63" viewBox="0 0 49 63" fill="none" xmlns="http://www.w3.org/2000/svg">
<path d="M24.2256 44C13.1799 44 4.22559 35.0457 4.22559 24C4.22559 12.9543 13.1799 4 24.2256 4C35.2713 4 44.2256 12.9543 44.2256 24C44.2135 35.0407 35.2663 43.9879 24.2256 44ZM24.1936 40H24.2256C33.059 39.9912 40.214 32.8254 40.2096 23.992C40.2052 15.1586 33.043 8.00001 24.2096 8.00001C15.3762 8.00001 8.214 15.1586 8.20959 23.992C8.20517 32.8254 15.3602 39.9912 24.1936 40ZM17.2536 29.728L14.4256 26.9L24.3256 17L34.2256 26.9L31.3976 29.726L24.3256 22.656L17.2556 29.728H17.2536Z" fill="#D2AB67"/>
<path d="M6.87549 59V48.3359H9.91504C10.8867 48.3359 11.6167 48.5728 12.105 49.0464C12.5981 49.52 12.8447 50.2305 12.8447 51.1777C12.8447 51.6758 12.7202 52.1152 12.4712 52.4961C12.2222 52.877 11.8853 53.1724 11.4604 53.3823C11.9487 53.5288 12.3345 53.8291 12.6177 54.2832C12.9058 54.7373 13.0498 55.2842 13.0498 55.9238C13.0498 56.8809 12.7861 57.6328 12.2588 58.1797C11.7363 58.7266 10.9893 59 10.0176 59H6.87549ZM8.21582 54.0122V57.8501H10.0469C10.5547 57.8501 10.9575 57.6841 11.2554 57.3521C11.5532 57.0151 11.7021 56.5439 11.7021 55.9385C11.7021 54.6543 11.1602 54.0122 10.0762 54.0122H8.21582ZM8.21582 52.8843H9.93701C10.4009 52.8843 10.7744 52.728 11.0576 52.4155C11.3457 52.103 11.4897 51.688 11.4897 51.1704C11.4897 50.5845 11.3604 50.1597 11.1016 49.896C10.8428 49.6274 10.4473 49.4932 9.91504 49.4932H8.21582V52.8843ZM14.998 59V51.0752H17.6567C18.5649 51.0752 19.2583 51.2607 19.7368 51.6318C20.2153 52.0029 20.4546 52.5425 20.4546 53.2505C20.4546 53.6167 20.3594 53.9463 20.1689 54.2393C19.9785 54.5322 19.7002 54.7568 19.334 54.9131C19.7393 55.0205 20.064 55.2378 20.3081 55.5649C20.5571 55.8921 20.6816 56.2876 20.6816 56.7515C20.6816 57.4839 20.4521 58.043 19.9932 58.4287C19.5391 58.8096 18.8945 59 18.0596 59H14.998ZM16.2871 55.521V57.9087H18.0742C18.9482 57.9087 19.3853 57.5083 19.3853 56.7075C19.3853 55.9165 18.9434 55.521 18.0596 55.521H16.2871ZM16.2871 54.437H17.6421C18.6528 54.437 19.1582 54.0659 19.1582 53.3237C19.1582 52.5767 18.6821 52.1934 17.73 52.1738H16.2871V54.437ZM25.2739 59.1465C24.2876 59.1465 23.5308 58.8535 23.0034 58.2676C22.4761 57.6768 22.2075 56.8125 22.1978 55.6748V54.7153C22.1978 53.5337 22.4541 52.6084 22.9668 51.9395C23.4844 51.2656 24.2046 50.9287 25.1274 50.9287C26.0552 50.9287 26.7485 51.2241 27.2075 51.8149C27.6665 52.4058 27.9009 53.3262 27.9106 54.5762V55.4258H23.4868V55.6089C23.4868 56.4585 23.6455 57.0762 23.9629 57.4619C24.2852 57.8477 24.7466 58.0405 25.3472 58.0405C25.728 58.0405 26.0625 57.9697 26.3506 57.8281C26.6436 57.6816 26.917 57.4521 27.1709 57.1396L27.8447 57.96C27.2832 58.751 26.4263 59.1465 25.2739 59.1465ZM25.1274 52.042C24.5903 52.042 24.1924 52.2275 23.9336 52.5986C23.6748 52.9648 23.5283 53.5361 23.4941 54.3125H26.6143V54.1367C26.5801 53.3848 26.4434 52.8477 26.2041 52.5254C25.9697 52.2031 25.6108 52.042 25.1274 52.042ZM35.1982 55.4185C35.1982 56.6733 34.9712 57.6084 34.5171 58.2236C34.0679 58.8389 33.4307 59.1465 32.6055 59.1465C31.8096 59.1465 31.1968 58.8462 30.7671 58.2456V62.0469H29.478V51.0752H30.6499L30.7158 51.9541C31.1504 51.2705 31.7729 50.9287 32.5835 50.9287C33.4526 50.9287 34.1021 51.2314 34.5317 51.8369C34.9614 52.4424 35.1836 53.3481 35.1982 54.5542V55.4185ZM33.9092 54.6787C33.9092 53.79 33.7725 53.1357 33.499 52.7158C33.2256 52.291 32.7861 52.0786 32.1807 52.0786C31.5605 52.0786 31.0894 52.3887 30.7671 53.0088V57.1323C31.0845 57.7378 31.5605 58.0405 32.1953 58.0405C32.7812 58.0405 33.2109 57.8306 33.4844 57.4106C33.7627 56.9858 33.9043 56.3389 33.9092 55.4697V54.6787ZM39.0435 53.9683L40.3984 51.0752H41.8999L39.7466 54.9937L41.9512 59H40.4644L39.0654 56.0337L37.6592 59H36.165L38.3696 54.9937L36.2236 51.0752H37.7104L39.0435 53.9683Z" fill="#AB8027"/>
</svg>
